<?xml version="1.0" encoding="utf-8"?>
<!-- Generator: Adobe Illustrator 25.2.1, SVG Export Plug-In . SVG Version: 6.00 Build 0)  -->
<svg version="1.1" id="Layer_1" xmlns="http://www.w3.org/2000/svg" xmlns:xlink="http://www.w3.org/1999/xlink" x="0px" y="0px"
	 viewBox="0 0 1000 1000" style="enable-background:new 0 0 1000 1000;" xml:space="preserve">
<style type="text/css">
	.st0{fill:#1B1D39;}
	.st1{fill:url(#SVGID_1_);stroke:#000000;stroke-width:8;stroke-miterlimit:10;}
	.st2{fill:url(#SVGID_2_);stroke:#000000;stroke-width:8;stroke-miterlimit:10;}
</style>
<path class="st0" d="M471.3,866.05c-104.66,0-203.06-40.76-277.06-114.76S79.47,578.88,79.47,474.22
	c0-104.66,40.76-203.06,114.76-277.06C268.24,123.15,366.64,82.4,471.3,82.4c104.66,0,203.06,40.76,277.06,114.76
	s114.76,172.4,114.76,277.06c0,104.66-40.76,203.05-114.76,277.06S575.96,866.05,471.3,866.05z M471.3,225.88
	c-136.93,0-248.34,111.4-248.34,248.34c0,136.93,111.4,248.34,248.34,248.34c136.93,0,248.34-111.4,248.34-248.34
	C719.63,337.29,608.23,225.88,471.3,225.88z"/>
<g>
	<linearGradient id="SVGID_1_" gradientUnits="userSpaceOnUse" x1="125.9165" y1="452.1022" x2="471.2961" y2="452.1022">
		<stop  offset="4.049120e-07" style="stop-color:#00AEEF"/>
		<stop  offset="1" style="stop-color:#2E3192"/>
	</linearGradient>
	<path class="st1" d="M283.44,490.2l-43.96,205.88H125.92l103.31-487.97h135.55c87.92,0,119.43,46.89,101.84,128.22l-7.33,33.7
		c-10.26,47.62-32.24,71.8-60.08,80.6c27.84,16.85,32.97,43.23,16.85,114.3c-13.19,57.88-24.91,112.1-26.38,131.15H279.05
		c-3.66-8.79,2.2-43.23,25.64-153.86c10.26-48.36,3.66-52.02-15.39-52.02H283.44z M301.76,407.41h8.79
		c21.98,0,27.84-8.06,34.44-38.83l8.06-41.03c5.86-28.57,1.46-36.63-20.52-36.63h-6.59L301.76,407.41z"/>
	<linearGradient id="SVGID_2_" gradientUnits="userSpaceOnUse" x1="432.9003" y1="452.1022" x2="800.7053" y2="452.1022">
		<stop  offset="4.049120e-07" style="stop-color:#00AEEF"/>
		<stop  offset="1" style="stop-color:#2E3192"/>
	</linearGradient>
	<path class="st2" d="M432.9,696.09l103.31-487.97h126.02c-7.33,134.81-19.78,317.25-21.25,337.77h5.13
		c8.06-76.93,34.44-274.76,43.96-320.18l3.66-17.58h106.97L697.4,696.09H567.71c8.06-128.22,20.52-317.98,21.98-334.1h-5.86
		c-8.06,54.22-35.17,265.96-46.89,322.38l-2.2,11.72H432.9z"/>
</g>
</svg>
